<svg width="31" height="40" viewBox="0 0 31 40" fill="none" xmlns="http://www.w3.org/2000/svg">
<path fill-rule="evenodd" clip-rule="evenodd" d="M15.2379 6.14625L13.4169 4.27454C10.5472 1.32603 5.18092 2.30125 3.23302 6.10308C2.34415 7.84273 2.08764 10.4382 3.83237 13.8794C5.48567 17.1505 8.93957 21.1301 15.2379 25.5033C21.5336 21.1276 24.9875 17.1479 26.6434 13.8794C28.3881 10.4382 28.1341 7.84273 27.2427 6.10562C25.2948 2.30125 19.9286 1.32603 17.0588 4.27454L15.2379 6.14625ZM13.9934 27.7331C-13.3838 8.83826 6.37454 -5.67574 14.9052 2.1768C15.0195 2.28093 15.1312 2.39013 15.2404 2.50442C15.3496 2.39013 15.4614 2.28093 15.5756 2.1768C24.1088 -5.67574 43.8595 8.8408 16.4823 27.7331L17.0791 28.9217C17.1165 28.9964 17.1387 29.0777 17.1446 29.161C17.1506 29.2444 17.14 29.328 17.1136 29.4073C17.0872 29.4865 17.0454 29.5598 16.9907 29.6229C16.936 29.6859 16.8694 29.7377 16.7947 29.775C16.72 29.8124 16.6386 29.8346 16.5553 29.8406C16.472 29.8465 16.3883 29.8359 16.3091 29.8095C16.2299 29.7831 16.1566 29.7413 16.0935 29.6866C16.0304 29.6319 15.9787 29.5653 15.9413 29.4906L15.921 29.4474C15.9413 29.7268 15.9718 29.9604 16.015 30.1839C16.1521 30.8696 16.4239 31.4232 17.0791 32.7311C17.8105 34.199 17.6759 35.6517 17.2721 36.8682C16.8734 38.0593 16.2004 39.0701 15.7788 39.6999L15.7686 39.7177C15.7223 39.787 15.6627 39.8466 15.5933 39.8929C15.524 39.9393 15.4461 39.9715 15.3643 39.9878C15.2825 40.0041 15.1982 40.0041 15.1164 39.9878C15.0346 39.9715 14.9568 39.9393 14.8874 39.8929C14.818 39.8465 14.7585 39.787 14.7121 39.7176C14.6658 39.6482 14.6335 39.5704 14.6173 39.4886C14.601 39.4067 14.601 39.3225 14.6173 39.2407C14.6336 39.1588 14.6658 39.081 14.7122 39.0117C15.1388 38.3717 15.728 37.4879 16.0658 36.4644C16.4036 35.4587 16.4797 34.3717 15.9413 33.3L15.9083 33.2289C15.2988 32.0099 14.9433 31.3039 14.7706 30.4302C14.6994 30.0529 14.6553 29.671 14.6385 29.2874L14.5369 29.4906C14.5 29.5658 14.4485 29.6329 14.3855 29.6881C14.3224 29.7433 14.2491 29.7855 14.1697 29.8123C14.0903 29.839 14.0064 29.8497 13.9228 29.8439C13.8392 29.838 13.7576 29.8157 13.6827 29.7781C13.6078 29.7406 13.541 29.6886 13.4863 29.6252C13.4316 29.5617 13.39 29.488 13.3638 29.4084C13.3377 29.3288 13.3276 29.2448 13.3341 29.1613C13.3406 29.0777 13.3636 28.9963 13.4017 28.9217L13.9985 27.7331H13.9934ZM10.1916 5.23198C8.54339 4.77485 6.42534 5.44277 5.49329 7.25861C5.1606 7.91384 4.87108 9.00842 5.29012 10.649C5.45012 11.2687 6.34153 11.1519 6.52692 10.5398C7.06025 8.76969 8.11927 6.86497 9.97828 6.24276C10.5294 6.05736 10.7503 5.3869 10.1916 5.23198Z" fill="#AD5E5E"/>
</svg>
