<svg width="41" height="38" viewBox="0 0 41 38" fill="none" xmlns="http://www.w3.org/2000/svg">
<path d="M4.23748 37.9994H23.4772C24.6313 38 25.7719 37.7506 26.8204 37.2683C27.8689 36.786 28.8005 36.0822 29.5511 35.2055L39.7549 23.3016C39.9686 23.0528 40.1178 22.7553 40.1893 22.4352C40.2609 22.1151 40.2527 21.7823 40.1653 21.4662C40.078 21.15 39.9143 20.8602 39.6885 20.6223C39.4628 20.3843 39.182 20.2056 38.8709 20.1017L34.935 18.7897C33.9837 18.4805 32.9709 18.4105 31.9861 18.586C31.0014 18.7615 30.075 19.177 29.2891 19.7957L22.9192 24.8896L21.6852 22.4197C21.0241 21.0882 20.0034 19.9685 18.7387 19.1874C17.474 18.4062 16.0158 17.9948 14.5293 17.9997H4.23748C2.03152 17.9997 0.237549 19.7937 0.237549 21.9997V33.9995C0.237549 36.2054 2.03152 37.9994 4.23748 37.9994ZM4.23748 21.9997H14.5293C16.0553 21.9997 17.4253 22.8457 18.1073 24.2096L19.0012 25.9996H10.2374V29.9995H22.2652C22.5729 29.9955 22.8755 29.9202 23.1492 29.7795L23.1552 29.7775L23.1632 29.7735H23.1692L23.1732 29.7715H23.1812L23.1832 29.7695C23.2012 29.7755 23.1892 29.7675 23.1892 29.7675C23.2092 29.7675 23.1932 29.7655 23.1932 29.7655H23.1952L23.1992 29.7635L23.2052 29.7615L23.2092 29.7595L23.2132 29.7575L23.2192 29.7555L23.2232 29.7535C23.2292 29.7535 23.2252 29.7515 23.2272 29.7515L23.2332 29.7475L23.2372 29.7455L23.2412 29.7435L23.2472 29.7415L23.2512 29.7395H23.2532L23.2572 29.7375H23.2592L23.2632 29.7355L23.2672 29.7335C23.2852 29.7315 23.2732 29.7315 23.2732 29.7315L23.2772 29.7295C23.3542 29.683 23.4278 29.6309 23.4972 29.5735L31.789 22.9397C32.313 22.5237 33.035 22.3937 33.669 22.6057L34.783 22.9777L26.5171 32.6235C26.1369 33.0552 25.6692 33.4012 25.1451 33.6384C24.621 33.8756 24.0525 33.9987 23.4772 33.9995H4.23748V21.9997ZM28.2371 1.88111e-05H28.2031C27.8771 0.00401875 26.1911 0.0780174 24.2372 1.41C22.3352 0.114017 20.6892 0.0100185 20.3012 0.00201863L20.2412 1.88111e-05H20.2332C18.6313 1.88111e-05 17.1233 0.626009 15.9953 1.75599C14.8633 2.88997 14.2373 4.39595 14.2373 5.99992C14.2373 7.6039 14.8633 9.10987 15.9593 10.2079L22.7872 17.3797C22.975 17.5748 23.2003 17.7298 23.4496 17.8357C23.6988 17.9416 23.9668 17.9961 24.2376 17.9959C24.5084 17.9957 24.7763 17.9408 25.0254 17.8346C25.2745 17.7284 25.4996 17.573 25.6871 17.3777L32.479 10.2419C33.613 9.10987 34.237 7.6039 34.237 5.99992C34.237 4.39595 33.611 2.88997 32.481 1.75799C31.9257 1.19909 31.265 0.755924 30.5372 0.454162C29.8094 0.1524 29.029 -0.00196129 28.2411 1.88111e-05H28.2371ZM30.2371 5.99992C30.2371 6.53391 30.0291 7.03591 29.6151 7.4499L24.2372 13.0998L18.8232 7.4139C18.4453 7.03591 18.2373 6.53391 18.2373 5.99992C18.2373 5.46593 18.4453 4.96394 18.8252 4.58394C19.1869 4.21606 19.6794 4.00614 20.1952 3.99995C20.2452 4.00195 21.1992 4.06395 22.3292 4.96994C22.4912 5.09994 22.6552 5.24793 22.8232 5.41393L24.2372 6.82791L25.6511 5.41393C25.8191 5.24793 25.9831 5.09994 26.1451 4.96994C27.2031 4.11995 28.0971 4.01395 28.2491 4.00195C28.5098 4.00191 28.7679 4.05349 29.0085 4.15372C29.2491 4.25396 29.4675 4.40086 29.6511 4.58595C30.0291 4.96394 30.2371 5.46593 30.2371 5.99992Z" fill="white"/>
</svg>
